<svg xmlns="http://www.w3.org/2000/svg" xmlns:xlink="http://www.w3.org/1999/xlink" width="1920" zoomAndPan="magnify" viewBox="0 0 1440 809.999993" height="1080" preserveAspectRatio="xMidYMid meet" version="1.0"><defs><clipPath id="71e82ca9d9"><path d="M 404 93.949219 L 1018.140625 93.949219 L 1018.140625 708 L 404 708 Z M 404 93.949219 " clip-rule="nonzero"/></clipPath></defs><g clip-path="url(#71e82ca9d9)"><path fill="#f25244" d="M 711.171875 707.769531 C 541.933594 707.769531 404.25 570.109375 404.25 400.871094 C 404.253906 395.847656 404.382812 390.832031 404.636719 385.816406 C 404.886719 380.800781 405.261719 375.792969 405.757812 370.796875 C 406.253906 365.800781 406.875 360.820312 407.617188 355.851562 C 408.359375 350.886719 409.21875 345.941406 410.203125 341.015625 C 411.1875 336.09375 412.292969 331.195312 413.515625 326.324219 C 414.738281 321.457031 416.082031 316.617188 417.542969 311.816406 C 419.003906 307.011719 420.582031 302.246094 422.277344 297.519531 C 423.972656 292.792969 425.78125 288.109375 427.707031 283.472656 C 429.628906 278.832031 431.667969 274.246094 433.816406 269.707031 C 435.964844 265.167969 438.222656 260.683594 440.59375 256.257812 C 442.960938 251.832031 445.4375 247.464844 448.023438 243.15625 C 450.605469 238.851562 453.292969 234.609375 456.082031 230.4375 C 458.875 226.261719 461.765625 222.160156 464.757812 218.125 C 467.75 214.09375 470.839844 210.136719 474.023438 206.253906 C 477.210938 202.375 480.488281 198.574219 483.863281 194.851562 C 487.234375 191.132812 490.695312 187.496094 494.246094 183.945312 C 497.796875 180.394531 501.433594 176.933594 505.152344 173.5625 C 508.875 170.191406 512.675781 166.910156 516.554688 163.722656 C 520.4375 160.539062 524.394531 157.449219 528.425781 154.457031 C 532.460938 151.464844 536.5625 148.574219 540.738281 145.78125 C 544.910156 142.992188 549.152344 140.304688 553.457031 137.722656 C 557.765625 135.136719 562.132812 132.660156 566.558594 130.292969 C 570.984375 127.925781 575.46875 125.664062 580.007812 123.515625 C 584.546875 121.367188 589.132812 119.328125 593.773438 117.40625 C 598.410156 115.480469 603.09375 113.671875 607.820312 111.976562 C 612.546875 110.28125 617.3125 108.703125 622.117188 107.242188 C 626.917969 105.78125 631.757812 104.4375 636.625 103.214844 C 641.496094 101.992188 646.394531 100.886719 651.316406 99.902344 C 656.242188 98.917969 661.1875 98.058594 666.152344 97.316406 C 671.121094 96.574219 676.101562 95.953125 681.097656 95.457031 C 686.09375 94.960938 691.101562 94.585938 696.117188 94.335938 C 701.132812 94.082031 706.148438 93.953125 711.171875 93.949219 C 880.410156 93.949219 1018.070312 231.632812 1018.070312 400.871094 C 1018.066406 405.890625 1017.9375 410.910156 1017.683594 415.925781 C 1017.433594 420.9375 1017.058594 425.945312 1016.5625 430.941406 C 1016.066406 435.9375 1015.445312 440.917969 1014.707031 445.886719 C 1013.964844 450.851562 1013.101562 455.796875 1012.117188 460.71875 C 1011.136719 465.644531 1010.03125 470.542969 1008.808594 475.410156 C 1007.585938 480.28125 1006.242188 485.117188 1004.78125 489.921875 C 1003.320312 494.726562 1001.742188 499.492188 1000.046875 504.21875 C 998.355469 508.945312 996.542969 513.625 994.621094 518.265625 C 992.695312 522.902344 990.660156 527.492188 988.511719 532.027344 C 986.363281 536.566406 984.101562 541.050781 981.734375 545.476562 C 979.367188 549.902344 976.890625 554.269531 974.308594 558.578125 C 971.722656 562.882812 969.039062 567.121094 966.246094 571.296875 C 963.457031 575.46875 960.566406 579.574219 957.574219 583.605469 C 954.582031 587.640625 951.492188 591.59375 948.304688 595.476562 C 945.121094 599.359375 941.839844 603.15625 938.46875 606.878906 C 935.097656 610.597656 931.636719 614.234375 928.085938 617.785156 C 924.535156 621.335938 920.898438 624.796875 917.179688 628.167969 C 913.457031 631.539062 909.65625 634.820312 905.777344 638.003906 C 901.894531 641.191406 897.9375 644.28125 893.90625 647.273438 C 889.875 650.265625 885.769531 653.15625 881.597656 655.945312 C 877.421875 658.738281 873.183594 661.425781 868.875 664.007812 C 864.570312 666.589844 860.203125 669.066406 855.777344 671.433594 C 851.351562 673.804688 846.867188 676.0625 842.328125 678.210938 C 837.789062 680.359375 833.203125 682.394531 828.566406 684.320312 C 823.925781 686.242188 819.246094 688.054688 814.519531 689.746094 C 809.792969 691.441406 805.027344 693.019531 800.222656 694.480469 C 795.417969 695.941406 790.582031 697.285156 785.710938 698.507812 C 780.84375 699.730469 775.945312 700.835938 771.019531 701.816406 C 766.097656 702.800781 761.152344 703.664062 756.1875 704.40625 C 751.21875 705.144531 746.238281 705.765625 741.242188 706.261719 C 736.246094 706.757812 731.238281 707.132812 726.226562 707.382812 C 721.210938 707.636719 716.191406 707.765625 711.171875 707.769531 Z M 711.171875 110.429688 C 706.417969 110.429688 701.667969 110.546875 696.917969 110.78125 C 692.171875 111.011719 687.433594 111.363281 682.703125 111.828125 C 677.972656 112.292969 673.253906 112.875 668.554688 113.570312 C 663.851562 114.269531 659.167969 115.082031 654.507812 116.007812 C 649.84375 116.933594 645.210938 117.976562 640.597656 119.128906 C 635.988281 120.285156 631.40625 121.550781 626.859375 122.929688 C 622.308594 124.3125 617.796875 125.800781 613.320312 127.402344 C 608.847656 129.003906 604.414062 130.710938 600.019531 132.53125 C 595.628906 134.351562 591.285156 136.277344 586.988281 138.308594 C 582.691406 140.339844 578.445312 142.476562 574.253906 144.714844 C 570.0625 146.957031 565.925781 149.296875 561.851562 151.742188 C 557.773438 154.183594 553.757812 156.726562 549.804688 159.367188 C 545.851562 162.007812 541.96875 164.746094 538.148438 167.574219 C 534.332031 170.40625 530.585938 173.328125 526.910156 176.34375 C 523.234375 179.359375 519.636719 182.464844 516.117188 185.65625 C 512.59375 188.847656 509.152344 192.125 505.789062 195.484375 C 502.429688 198.847656 499.152344 202.289062 495.960938 205.808594 C 492.765625 209.332031 489.664062 212.929688 486.648438 216.601562 C 483.632812 220.277344 480.707031 224.023438 477.875 227.839844 C 475.042969 231.660156 472.308594 235.542969 469.667969 239.496094 C 467.027344 243.449219 464.484375 247.460938 462.039062 251.539062 C 459.59375 255.617188 457.253906 259.75 455.011719 263.941406 C 452.769531 268.132812 450.632812 272.378906 448.601562 276.675781 C 446.570312 280.972656 444.644531 285.316406 442.824219 289.707031 C 441.003906 294.097656 439.292969 298.53125 437.691406 303.007812 C 436.089844 307.484375 434.601562 311.996094 433.21875 316.542969 C 431.839844 321.09375 430.570312 325.671875 429.417969 330.28125 C 428.261719 334.894531 427.21875 339.53125 426.292969 344.191406 C 425.363281 348.855469 424.550781 353.535156 423.855469 358.238281 C 423.15625 362.941406 422.574219 367.65625 422.109375 372.386719 C 421.640625 377.117188 421.292969 381.855469 421.058594 386.601562 C 420.824219 391.351562 420.707031 396.101562 420.707031 400.855469 C 420.707031 405.609375 420.824219 410.359375 421.058594 415.105469 C 421.289062 419.855469 421.640625 424.59375 422.105469 429.324219 C 422.570312 434.054688 423.152344 438.769531 423.851562 443.472656 C 424.546875 448.171875 425.359375 452.855469 426.285156 457.519531 C 427.214844 462.179688 428.253906 466.816406 429.410156 471.425781 C 430.5625 476.039062 431.832031 480.617188 433.210938 485.167969 C 434.589844 489.714844 436.082031 494.226562 437.679688 498.703125 C 439.28125 503.179688 440.992188 507.613281 442.8125 512.003906 C 444.628906 516.394531 446.554688 520.738281 448.589844 525.035156 C 450.621094 529.332031 452.757812 533.578125 454.996094 537.769531 C 457.238281 541.960938 459.578125 546.097656 462.023438 550.175781 C 464.464844 554.25 467.007812 558.265625 469.648438 562.21875 C 472.289062 566.171875 475.027344 570.054688 477.855469 573.875 C 480.6875 577.691406 483.613281 581.4375 486.628906 585.113281 C 489.644531 588.789062 492.746094 592.386719 495.9375 595.910156 C 499.128906 599.429688 502.40625 602.871094 505.769531 606.234375 C 509.128906 609.59375 512.570312 612.871094 516.09375 616.0625 C 519.613281 619.257812 523.210938 622.359375 526.886719 625.375 C 530.558594 628.390625 534.304688 631.316406 538.125 634.148438 C 541.941406 636.976562 545.828125 639.714844 549.777344 642.355469 C 553.730469 644.996094 557.746094 647.539062 561.824219 649.984375 C 565.898438 652.425781 570.035156 654.769531 574.226562 657.007812 C 578.417969 659.25 582.664062 661.386719 586.960938 663.417969 C 591.257812 665.453125 595.601562 667.378906 599.992188 669.195312 C 604.382812 671.015625 608.816406 672.726562 613.292969 674.328125 C 617.769531 675.929688 622.28125 677.421875 626.828125 678.800781 C 631.378906 680.179688 635.957031 681.449219 640.566406 682.601562 C 645.179688 683.757812 649.816406 684.800781 654.476562 685.726562 C 659.140625 686.65625 663.820312 687.46875 668.523438 688.164062 C 673.222656 688.863281 677.941406 689.445312 682.671875 689.910156 C 687.402344 690.375 692.140625 690.726562 696.886719 690.960938 C 701.636719 691.191406 706.386719 691.308594 711.140625 691.308594 C 715.894531 691.308594 720.644531 691.191406 725.390625 690.960938 C 730.136719 690.726562 734.878906 690.378906 739.609375 689.910156 C 744.339844 689.445312 749.054688 688.863281 753.757812 688.167969 C 758.457031 687.46875 763.140625 686.65625 767.800781 685.730469 C 772.464844 684.804688 777.101562 683.761719 781.710938 682.605469 C 786.324219 681.453125 790.902344 680.183594 795.453125 678.804688 C 800 677.425781 804.511719 675.933594 808.988281 674.332031 C 813.464844 672.730469 817.898438 671.023438 822.289062 669.203125 C 826.679688 667.382812 831.023438 665.457031 835.320312 663.425781 C 839.617188 661.394531 843.863281 659.257812 848.054688 657.015625 C 852.246094 654.777344 856.382812 652.433594 860.457031 649.992188 C 864.535156 647.546875 868.550781 645.003906 872.503906 642.363281 C 876.453125 639.722656 880.339844 636.988281 884.15625 634.15625 C 887.976562 631.324219 891.722656 628.402344 895.394531 625.386719 C 899.070312 622.371094 902.667969 619.265625 906.191406 616.074219 C 909.714844 612.882812 913.15625 609.605469 916.515625 606.246094 C 919.878906 602.882812 923.152344 599.441406 926.347656 595.921875 C 929.539062 592.398438 932.640625 588.800781 935.65625 585.125 C 938.671875 581.453125 941.597656 577.707031 944.429688 573.886719 C 947.261719 570.070312 949.996094 566.183594 952.636719 562.230469 C 955.277344 558.28125 957.820312 554.265625 960.265625 550.1875 C 962.707031 546.109375 965.050781 541.976562 967.289062 537.785156 C 969.53125 533.59375 971.667969 529.347656 973.699219 525.050781 C 975.734375 520.753906 977.660156 516.410156 979.476562 512.019531 C 981.296875 507.625 983.007812 503.195312 984.609375 498.71875 C 986.210938 494.242188 987.699219 489.730469 989.078125 485.183594 C 990.460938 480.632812 991.726562 476.054688 992.882812 471.441406 C 994.035156 466.832031 995.078125 462.195312 996.003906 457.53125 C 996.933594 452.871094 997.746094 448.1875 998.441406 443.488281 C 999.140625 438.785156 999.722656 434.070312 1000.1875 429.339844 C 1000.652344 424.609375 1001.003906 419.871094 1001.238281 415.121094 C 1001.46875 410.375 1001.585938 405.625 1001.585938 400.871094 C 1001.582031 396.117188 1001.460938 391.371094 1001.222656 386.625 C 1000.984375 381.878906 1000.628906 377.140625 1000.160156 372.414062 C 999.6875 367.6875 999.101562 362.972656 998.402344 358.273438 C 997.699219 353.574219 996.882812 348.894531 995.953125 344.234375 C 995.019531 339.574219 993.976562 334.941406 992.820312 330.332031 C 991.660156 325.722656 990.390625 321.148438 989.007812 316.601562 C 987.625 312.054688 986.132812 307.546875 984.527344 303.074219 C 982.925781 298.601562 981.214844 294.167969 979.390625 289.78125 C 977.570312 285.390625 975.644531 281.050781 973.609375 276.757812 C 971.578125 272.460938 969.441406 268.21875 967.199219 264.03125 C 964.957031 259.839844 962.613281 255.707031 960.167969 251.632812 C 957.726562 247.558594 955.183594 243.546875 952.542969 239.597656 C 949.902344 235.644531 947.164062 231.761719 944.335938 227.945312 C 941.503906 224.132812 938.582031 220.386719 935.566406 216.714844 C 932.550781 213.042969 929.449219 209.445312 926.257812 205.925781 C 923.066406 202.402344 919.789062 198.964844 916.429688 195.605469 C 913.070312 192.242188 909.632812 188.96875 906.109375 185.777344 C 902.589844 182.585938 898.996094 179.480469 895.320312 176.46875 C 891.648438 173.453125 887.90625 170.527344 884.089844 167.699219 C 880.273438 164.867188 876.390625 162.128906 872.441406 159.488281 C 868.492188 156.847656 864.480469 154.304688 860.40625 151.859375 C 856.328125 149.414062 852.199219 147.074219 848.007812 144.832031 C 843.820312 142.589844 839.578125 140.449219 835.285156 138.417969 C 830.988281 136.382812 826.648438 134.457031 822.257812 132.632812 C 817.871094 130.8125 813.4375 129.101562 808.964844 127.496094 C 804.492188 125.894531 799.984375 124.398438 795.4375 123.015625 C 790.894531 121.632812 786.316406 120.363281 781.707031 119.207031 C 777.101562 118.046875 772.464844 117 767.808594 116.070312 C 763.148438 115.140625 758.46875 114.324219 753.769531 113.621094 C 749.070312 112.917969 744.355469 112.332031 739.628906 111.863281 C 734.898438 111.390625 730.164062 111.035156 725.417969 110.796875 C 720.671875 110.558594 715.921875 110.4375 711.171875 110.429688 Z M 711.171875 110.429688 " fill-opacity="1" fill-rule="nonzero"/></g><path fill="#f25244" d="M 870.753906 372.589844 L 870.753906 372.1875 C 870.664062 371.785156 870.539062 371.394531 870.378906 371.011719 C 870.386719 370.941406 870.386719 370.871094 870.378906 370.800781 C 870.203125 370.375 869.984375 369.972656 869.71875 369.597656 L 869.507812 369.269531 C 869.28125 368.964844 869.039062 368.671875 868.777344 368.398438 L 868.566406 368.164062 C 868.234375 367.847656 867.878906 367.554688 867.503906 367.292969 L 867.199219 367.101562 L 866.65625 366.773438 L 706.25 282.332031 C 705.046875 281.714844 703.773438 281.40625 702.421875 281.40625 C 701.074219 281.40625 699.796875 281.714844 698.597656 282.332031 L 538.28125 366.773438 C 537.625 367.125 537.023438 367.558594 536.480469 368.078125 C 535.9375 368.59375 535.476562 369.171875 535.089844 369.8125 C 534.707031 370.453125 534.414062 371.136719 534.214844 371.855469 C 534.015625 372.578125 533.917969 373.3125 533.917969 374.0625 C 533.917969 374.808594 534.015625 375.542969 534.214844 376.265625 C 534.414062 376.984375 534.707031 377.667969 535.089844 378.308594 C 535.476562 378.949219 535.9375 379.53125 536.480469 380.046875 C 537.023438 380.5625 537.625 380.996094 538.28125 381.347656 L 593.078125 410.242188 L 593.078125 465.226562 C 593.070312 466.757812 593.464844 468.179688 594.257812 469.488281 C 595.527344 471.585938 625.953125 520.445312 702.410156 520.445312 C 778.871094 520.445312 808.070312 471.417969 809.269531 469.347656 C 810.011719 468.074219 810.378906 466.699219 810.378906 465.226562 L 810.378906 411.066406 L 854.4375 387.824219 L 854.4375 451.6875 C 854.4375 452.226562 854.488281 452.765625 854.59375 453.292969 C 854.699219 453.824219 854.855469 454.339844 855.0625 454.839844 C 855.269531 455.339844 855.523438 455.816406 855.824219 456.265625 C 856.125 456.714844 856.46875 457.132812 856.851562 457.515625 C 857.234375 457.898438 857.648438 458.238281 858.097656 458.539062 C 858.546875 458.839844 859.023438 459.09375 859.523438 459.300781 C 860.023438 459.507812 860.539062 459.664062 861.070312 459.769531 C 861.601562 459.875 862.136719 459.929688 862.679688 459.929688 C 863.21875 459.929688 863.753906 459.875 864.285156 459.769531 C 864.816406 459.664062 865.332031 459.507812 865.832031 459.300781 C 866.332031 459.09375 866.804688 458.839844 867.257812 458.539062 C 867.707031 458.238281 868.121094 457.898438 868.503906 457.515625 C 868.886719 457.132812 869.230469 456.714844 869.53125 456.265625 C 869.832031 455.816406 870.085938 455.339844 870.292969 454.839844 C 870.5 454.339844 870.65625 453.824219 870.761719 453.292969 C 870.867188 452.765625 870.917969 452.226562 870.917969 451.6875 L 870.917969 374.167969 C 870.921875 373.636719 870.867188 373.109375 870.753906 372.589844 Z M 793.894531 462.824219 C 788.335938 470.949219 762.128906 503.960938 702.410156 503.960938 C 642.695312 503.960938 615.402344 470.996094 609.5625 462.730469 L 609.5625 418.90625 L 698.597656 466.003906 C 699.808594 466.632812 701.09375 466.945312 702.457031 466.945312 C 703.816406 466.949219 705.09375 466.636719 706.296875 466.003906 L 793.941406 419.78125 Z M 702.410156 449.285156 L 559.804688 374.167969 L 702.410156 298.8125 L 845.015625 374.167969 Z M 702.410156 449.285156 " fill-opacity="1" fill-rule="nonzero"/></svg>